<svg xmlns="http://www.w3.org/2000/svg"><defs><symbol id="chocolate_bar" xmlns="http://www.w3.org/2000/svg" viewBox="0 0 32 32"><path d="m13.822 2.413 7.527 7.536.08-.08a.856.856 0 0 1 1.184-.013l.006.006.867.867c.305.305.315.77.083 1.094l-.004.007-.143.192 6.16 6.16c.55.55.55 1.43 0 1.98l-9.43 9.43c-.55.55-1.43.55-1.98 0l-4.447-4.447a.841.841 0 0 1-1.256.071l-2.6-2.6a.856.856 0 0 1-.013-1.184l.006-.007.077-.076-7.527-7.527c-.55-.55-.55-1.43 0-1.98l9.43-9.43c.55-.55 1.43-.55 1.98 0v.001Zm6.582 8.48-1.756-1.755a.592.592 0 0 0-.85 0l-3.58 3.58a.606.606 0 0 0 0 .86l1.749 1.749.61-.61-1.565-1.565 3.21-3.22 1.569 1.574.613-.613Zm-5.076 5.072-1.754-1.754a.592.592 0 0 0-.85 0l-3.58 3.58-.005.005-.005.005c-.24.23-.24.61 0 .85l1.752 1.752.616-.616-1.57-1.564 3.22-3.21 1.564 1.563.612-.611ZM8.822 8.193l3.58 3.58c.24.24.62.24.85-.01l3.58-3.58a.579.579 0 0 0 .18-.42h.01c0-.15-.06-.31-.18-.43l-3.58-3.58a.604.604 0 0 0-.86 0l-3.58 3.59c-.24.23-.24.61 0 .85Zm-5.07 5.07 3.58 3.58c.24.24.62.24.85 0l3.58-3.58a.58.58 0 0 0 .18-.43h.01c0-.16-.06-.31-.18-.43l-3.58-3.58a.592.592 0 0 0-.85 0l-3.59 3.59c-.24.23-.24.61 0 .85Zm6.933 8.754 2.362 2.363 9.636-13.04-.655-.655-11.343 11.332Z"/><path d="m13.822 2.413 7.527 7.536.08-.08a.856.856 0 0 1 1.184-.013l.006.006.867.867c.305.305.315.77.083 1.094l-.004.007-.143.192 6.16 6.16c.55.55.55 1.43 0 1.98l-9.43 9.43c-.55.55-1.43.55-1.98 0l-4.447-4.447a.841.841 0 0 1-1.256.071l-2.6-2.6a.856.856 0 0 1-.013-1.184l.006-.007.077-.076-7.527-7.527c-.55-.55-.55-1.43 0-1.98l9.43-9.43c.55-.55 1.43-.55 1.98 0v.001Zm6.582 8.48-1.756-1.755a.592.592 0 0 0-.85 0l-3.58 3.58a.606.606 0 0 0 0 .86l1.749 1.749.61-.61-1.565-1.565 3.21-3.22 1.569 1.574.613-.613Zm-5.076 5.072-1.754-1.754a.592.592 0 0 0-.85 0l-3.58 3.58-.005.005-.005.005c-.24.23-.24.61 0 .85l1.752 1.752.616-.616-1.57-1.564 3.22-3.21 1.564 1.563.612-.611ZM8.822 8.193l3.58 3.58c.24.24.62.24.85-.01l3.58-3.58a.579.579 0 0 0 .18-.42h.01c0-.15-.06-.31-.18-.43l-3.58-3.58a.604.604 0 0 0-.86 0l-3.58 3.59c-.24.23-.24.61 0 .85Zm-5.07 5.07 3.58 3.58c.24.24.62.24.85 0l3.58-3.58a.58.58 0 0 0 .18-.43h.01c0-.16-.06-.31-.18-.43l-3.58-3.58a.592.592 0 0 0-.85 0l-3.59 3.59c-.24.23-.24.61 0 .85Zm6.933 8.754 2.362 2.363 9.636-13.04-.655-.655-11.343 11.332Z" fill="#FD9222"/></symbol><symbol id="dollar_sign" xmlns="http://www.w3.org/2000/svg" viewBox="0 0 28 28"><path d="M14 .667C6.667.667.667 6.667.667 14s6 13.333 13.333 13.333 13.333-6 13.333-13.333S21.333.667 14 .667Zm0 24c-5.867 0-10.667-4.8-10.667-10.667S8.133 3.333 14 3.333 24.667 8.133 24.667 14 19.867 24.667 14 24.667Z" fill="#FD9222"/><path d="M15.733 12.667h-3.466c-.667 0-1.2-.534-1.2-1.2 0-.667.533-1.2 1.2-1.2H17.2c.8 0 1.333-.534 1.333-1.334S18 7.6 17.2 7.6h-1.867V6.4c0-.8-.533-1.333-1.333-1.333-.8 0-1.333.533-1.333 1.333v1.2h-.4A3.87 3.87 0 0 0 8.4 11.467a3.87 3.87 0 0 0 3.867 3.866H15.6c.667 0 1.2.534 1.2 1.2 0 .667-.533 1.2-1.2 1.2h-4.933c-.8 0-1.334.534-1.334 1.334s.534 1.333 1.334 1.333h2v1.2c0 .8.533 1.333 1.333 1.333.8 0 1.333-.533 1.333-1.333v-1.2h.4a3.87 3.87 0 0 0 3.867-3.867 3.87 3.87 0 0 0-3.867-3.866Z" fill="#FD9222"/></symbol><symbol id="spoon" xmlns="http://www.w3.org/2000/svg" viewBox="0 0 32 32"><path d="M15.451 14.106a5.156 5.156 0 0 1-1.176-3.282c0-4.324 5.181-8.642 10.362-8.642a5.183 5.183 0 0 1 5.181 5.182c0 5.182-4.317 10.364-8.646 10.364a5.154 5.154 0 0 1-3.281-1.177L5.133 29.312a1.73 1.73 0 0 1-2.445-2.445L15.45 14.106Z" fill="#FD9222"/></symbol><symbol id="icon-close-modal24" viewBox="0 0 32 32"><path d="M7.501 6.727a2.257 2.257 0 0 0-.772.776l-.006.01a1.15 1.15 0 0 0 .005.99l-.003-.007c.075.149 1.313 1.427 3.745 3.864L14.105 16l-3.635 3.64c-2.432 2.437-3.671 3.715-3.745 3.864-.235.469-.113.977.34 1.431s.961.575 1.431.34c.149-.075 1.427-1.313 3.864-3.745L16 17.895l3.64 3.635c2.437 2.432 3.715 3.671 3.864 3.745.469.235.977.113 1.431-.34s.575-.961.34-1.431c-.075-.149-1.313-1.427-3.745-3.864L17.895 16l3.635-3.64c2.432-2.437 3.671-3.715 3.745-3.864.235-.469.113-.977-.34-1.431s-.961-.575-1.431-.34c-.149.075-1.427 1.313-3.864 3.745L16 14.105l-3.64-3.635C9.923 8.038 8.645 6.799 8.496 6.725a1.173 1.173 0 0 0-1.002.005l.007-.003z"/></symbol><symbol id="icon-ukraine-flag" viewBox="0 0 46 32"><path fill="#005bbb" style="fill:var(--color1,#005bbb)" d="M2.525 0h40.942a2.528 2.528 0 0 1 2.525 2.525v26.942a2.534 2.534 0 0 1-2.525 2.525H2.525A2.522 2.522 0 0 1 0 29.475V2.525A2.534 2.534 0 0 1 2.525 0z"/><path fill="#ffd500" style="fill:var(--color2,#ffd500)" d="M0 16h46v13.475A2.534 2.534 0 0 1 43.475 32H2.525A2.534 2.534 0 0 1 0 29.475V16z"/></symbol><symbol id="icon-mastercard" viewBox="0 0 50 32"><path fill="#ed0006" style="fill:var(--color1,#ed0006)" d="M25.143 28.078c-2.656 2.194-6.102 3.518-9.867 3.518C6.875 31.596.065 25.003.065 16.87S6.875 2.144 15.276 2.144c3.765 0 7.21 1.324 9.867 3.518 2.656-2.194 6.102-3.518 9.866-3.518 8.401 0 15.211 6.593 15.211 14.726s-6.81 14.726-15.211 14.726c-3.765 0-7.21-1.324-9.867-3.518z"/><path fill="#f9a000" style="fill:var(--color2,#f9a000)" d="M25.143 28.078c3.271-2.701 5.344-6.72 5.344-11.208s-2.074-8.507-5.344-11.208c2.656-2.194 6.102-3.518 9.866-3.518 8.401 0 15.211 6.593 15.211 14.726s-6.81 14.726-15.211 14.726c-3.765 0-7.21-1.324-9.867-3.518z"/><path fill="#ff5e00" style="fill:var(--color3,#ff5e00)" d="M25.143 28.078c3.271-2.701 5.344-6.72 5.344-11.208s-2.074-8.507-5.344-11.208c-3.271 2.701-5.344 6.72-5.344 11.208s2.074 8.507 5.344 11.208z"/></symbol><symbol id="close-btn"><path d="M21 7 7 21M7 7l14 14" stroke="#fff" stroke-width="2" stroke-linecap="round" stroke-linejoin="round"/></symbol><symbol id="icon-logo" viewBox="0 0 32 32"><path fill="#fcf1e0" style="fill:var(--color1,#fcf1e0)" d="M3.944 20.076 14.721 2.652l.64-.674 8.236 5.491.056 3.314 2.01 3.28-8.88 14.077-12.839-8.063z"/><path fill="none" stroke="#fd9222" style="stroke:var(--color2,#fd9222)" stroke-linejoin="round" stroke-linecap="round" stroke-width="2.667" d="M21.635 23.88 7.45 15.016m3.911-6.417 14.185 8.864M10.63 25.864l11.736-19.25m4.81 8.175c-3.04-1.899-4.234-3.384-2.278-6.592l-9.626-6.015-11.736 19.25 14.186 8.864 9.454-15.507z"/></symbol><symbol id="icon-close-mobile" viewBox="0 0 32 32"><path d="M22.667 9.333 9.333 22.667m0-13.334 13.334 13.334" stroke-width="2" stroke-linecap="round" stroke-linejoin="round"/></symbol><symbol id="icon-instagram-desktop" viewBox="0 0 24 24" fill="none"><path d="M17 2H7a5 5 0 0 0-5 5v10a5 5 0 0 0 5 5h10a5 5 0 0 0 5-5V7a5 5 0 0 0-5-5Z" stroke-width="2" stroke-linecap="round" stroke-linejoin="round"/><path d="M16 11.37a4 4 0 1 1-7.914 1.173A4 4 0 0 1 16 11.37Z" stroke-width="2" stroke-linecap="round" stroke-linejoin="round"/><path d="M16 11.37a4 4 0 1 1-7.914 1.173A4 4 0 0 1 16 11.37Z" stroke-width="2" stroke-linecap="round" stroke-linejoin="round"/><path d="M17.5 6.5h.01" stroke-width="2" stroke-linejoin="round"/><path d="M17.5 6.5h.01" stroke-width="2" stroke-linecap="round" stroke-linejoin="round"/></symbol><symbol id="icon-instagram-mobile" viewBox="0 0 24 24" fill="none"><path d="M15.584 1.833H6.417a4.583 4.583 0 0 0-4.583 4.584v9.166a4.583 4.583 0 0 0 4.583 4.584h9.166a4.583 4.583 0 0 0 4.584-4.584V6.417a4.583 4.583 0 0 0-4.584-4.584Z" stroke-width="1.5" stroke-linecap="round" stroke-linejoin="round"/><path d="M14.667 10.422a3.666 3.666 0 1 1-7.253 1.076 3.666 3.666 0 0 1 7.253-1.075Z" stroke-width="1.5" stroke-linecap="round" stroke-linejoin="round"/><path d="M14.667 10.422a3.666 3.666 0 1 1-7.253 1.076 3.666 3.666 0 0 1 7.253-1.075ZM16.041 5.958h.01M16.041 5.958h.01" stroke-width="1.5" stroke-linecap="round" stroke-linejoin="round"/></symbol><symbol id="icon-twitter-desktop" viewBox="0 0 24 24" fill="none"><path d="M23 3a10.9 10.9 0 0 1-3.14 1.53 4.48 4.48 0 0 0-7.86 3v1a10.66 10.66 0 0 1-5.069-1.135c-1.57-.79-3.42-2.672-4.431-4.11C2.5 3.285-1 13 8 17a11.64 11.64 0 0 1-7 2c9 5 20 0 20-11.5 0-.279-.028-.556-.08-.83A7.72 7.72 0 0 0 23 3Z" stroke-width="2" stroke-linecap="round" stroke-linejoin="round"/></symbol><symbol id="icon-twitter-mobile" viewBox="0 0 24 24"><path d="M19.167 2.5a9.083 9.083 0 0 1-2.617 1.275 3.733 3.733 0 0 0-6.55 2.5v.833a8.883 8.883 0 0 1-4.224-.945C4.467 5.504 3.342 4.199 2.5 3c0 0-3.333 7.833 4.167 11.167a9.7 9.7 0 0 1-5.834 1.666C8.333 20 17.5 15.833 17.5 6.25c0-.232-.023-.464-.067-.692A6.433 6.433 0 0 0 19.167 2.5Z" stroke-width="1.5" stroke-linecap="round" stroke-linejoin="round"/></symbol><symbol id="icon-buynow-close" viewBox="0 0 28 28"><path d="M21 7 7 21M7 7l14 14" stroke-width="2" stroke-linecap="round" stroke-linejoin="round"/></symbol><symbol id="icon-scroll" viewBox="0 0 22 22"><path d="M11.651 12.283a.916.916 0 0 1-1.301 0L6.15 8.076A.917.917 0 1 0 4.85 9.368l4.207 4.208a2.75 2.75 0 0 0 3.887 0l4.207-4.208a.916.916 0 0 0-1.301-1.292l-4.199 4.207Z"/></symbol><symbol id="icon-flag" viewBox="0 0 32 25"><g clip-path="url('#clip0_1_1184')"><path d="M31.832 1.058H.242v23.509h31.59V1.058Z" fill="gold"/><path fill-rule="evenodd" clip-rule="evenodd" d="M.243 1.058h31.589v11.754H.242V1.058Z" fill="#0057B7"/></g><defs><clipPath id="clip0_1_1184"><path fill="#fff" transform="translate(0 .8)" d="M0 0h32v24H0z"/></clipPath></defs></symbol><symbol id="icon-mastercard1" viewBox="0 0 31 19"><path fill-rule="evenodd" clip-rule="evenodd" d="M16 16.834a9.083 9.083 0 0 1-5.935 2.199c-5.054 0-9.15-4.12-9.15-9.204 0-5.083 4.096-9.204 9.15-9.204 2.264 0 4.337.828 5.935 2.199A9.083 9.083 0 0 1 21.935.625c5.054 0 9.15 4.12 9.15 9.204 0 5.083-4.096 9.204-9.15 9.204A9.083 9.083 0 0 1 16 16.834Z" fill="#ED0006"/><path fill-rule="evenodd" clip-rule="evenodd" d="M16 16.834a9.206 9.206 0 0 0 3.215-7.005A9.206 9.206 0 0 0 16 2.824 9.083 9.083 0 0 1 21.935.625c5.054 0 9.15 4.12 9.15 9.204 0 5.083-4.096 9.204-9.15 9.204A9.083 9.083 0 0 1 16 16.834Z" fill="#F9A000"/><path fill-rule="evenodd" clip-rule="evenodd" d="M16 16.834a9.206 9.206 0 0 0 3.215-7.005A9.206 9.206 0 0 0 16 2.824a9.206 9.206 0 0 0-3.215 7.005A9.205 9.205 0 0 0 16 16.834Z" fill="#FF5E00"/></symbol><symbol id="icon-hamburger" viewBox="0 0 32 32"><path d="M4 16h24M4 8h24M4 24h24" stroke="#111" stroke-width="2.5" stroke-linecap="round" stroke-linejoin="round"/></symbol></defs></svg>