<svg aria-hidden="true" style="width:0;height:0;position:absolute;overflow:hidden" xmlns="http://www.w3.org/2000/svg"><defs><symbol id="chocolate_bar" viewBox="0 0 32 32"><path style="fill:var(--color1,#000)" d="m13.045.456 8.306 8.316.088-.088a.948.948 0 0 1 1.306-.015l.963.963c.337.337.348.85.092 1.207l-.004.008-.158.212 6.797 6.797a1.539 1.539 0 0 1 0 2.185L20.029 30.447a1.539 1.539 0 0 1-2.185 0l-4.907-4.907a.918.918 0 0 1-.675.35.93.93 0 0 1-.71-.272l-2.869-2.869a.948.948 0 0 1-.015-1.306l.007-.008.085-.084-8.306-8.306a1.539 1.539 0 0 1 0-2.185L10.859.455a1.539 1.539 0 0 1 2.185 0v.001zm7.263 9.357L18.37 7.876a.655.655 0 0 0-.938 0l-3.95 3.95a.664.664 0 0 0-.146.731.68.68 0 0 0 .146.217l1.93 1.93.673-.673-1.727-1.727L17.9 8.751l1.731 1.737.676-.676zm-5.601 5.597-1.935-1.935a.655.655 0 0 0-.938 0l-3.961 3.961a.653.653 0 0 0 0 .938l1.933 1.933.68-.68-1.732-1.726 3.553-3.542 1.726 1.725.675-.674zM7.528 6.834l3.95 3.95a.644.644 0 0 0 .938-.011l3.95-3.95a.643.643 0 0 0 .199-.463h.011a.674.674 0 0 0-.199-.474l-3.95-3.95a.667.667 0 0 0-.948 0l-3.95 3.961a.653.653 0 0 0 0 .938zm-5.595 5.594 3.95 3.95a.653.653 0 0 0 .938 0l3.95-3.95a.643.643 0 0 0 .199-.474h.011a.655.655 0 0 0-.199-.474l-3.95-3.95a.655.655 0 0 0-.938 0l-3.961 3.961a.653.653 0 0 0 0 .938zm7.65 9.66 2.606 2.607 10.633-14.389-.723-.723L9.583 22.087z"/><path fill="#fd9222" style="fill:var(--color2,#fd9222)" d="m13.045.456 8.306 8.316.088-.088a.948.948 0 0 1 1.306-.015l.963.963c.337.337.348.85.092 1.207l-.004.008-.158.212 6.797 6.797a1.539 1.539 0 0 1 0 2.185L20.029 30.447a1.539 1.539 0 0 1-2.185 0l-4.907-4.907a.918.918 0 0 1-.675.35.93.93 0 0 1-.71-.272l-2.869-2.869a.948.948 0 0 1-.015-1.306l.007-.008.085-.084-8.306-8.306a1.539 1.539 0 0 1 0-2.185L10.859.455a1.539 1.539 0 0 1 2.185 0v.001zm7.263 9.357L18.37 7.876a.655.655 0 0 0-.938 0l-3.95 3.95a.664.664 0 0 0-.146.731.68.68 0 0 0 .146.217l1.93 1.93.673-.673-1.727-1.727L17.9 8.751l1.731 1.737.676-.676zm-5.601 5.597-1.935-1.935a.655.655 0 0 0-.938 0l-3.961 3.961a.653.653 0 0 0 0 .938l1.933 1.933.68-.68-1.732-1.726 3.553-3.542 1.726 1.725.675-.674zM7.528 6.834l3.95 3.95a.644.644 0 0 0 .938-.011l3.95-3.95a.643.643 0 0 0 .199-.463h.011a.674.674 0 0 0-.199-.474l-3.95-3.95a.667.667 0 0 0-.948 0l-3.95 3.961a.653.653 0 0 0 0 .938zm-5.595 5.594 3.95 3.95a.653.653 0 0 0 .938 0l3.95-3.95a.643.643 0 0 0 .199-.474h.011a.655.655 0 0 0-.199-.474l-3.95-3.95a.655.655 0 0 0-.938 0l-3.961 3.961a.653.653 0 0 0 0 .938zm7.65 9.66 2.606 2.607 10.633-14.389-.723-.723L9.583 22.087z"/></symbol><symbol id="dollar_sign" viewBox="0 0 32 32"><path d="M14 .667C6.667.667.667 6.667.667 14s6 13.333 13.333 13.333 13.333-6 13.333-13.333S21.333.667 14 .667Zm0 24c-5.867 0-10.667-4.8-10.667-10.667S8.133 3.333 14 3.333 24.667 8.133 24.667 14 19.867 24.667 14 24.667Z" fill="#FD9222"/><path d="M15.733 12.667h-3.466c-.667 0-1.2-.534-1.2-1.2 0-.667.533-1.2 1.2-1.2H17.2c.8 0 1.334-.534 1.334-1.334S18 7.6 17.2 7.6h-1.866V6.4c0-.8-.534-1.333-1.334-1.333S12.667 5.6 12.667 6.4v1.2h-.4A3.87 3.87 0 0 0 8.4 11.467a3.87 3.87 0 0 0 3.867 3.866H15.6c.667 0 1.2.534 1.2 1.2 0 .667-.533 1.2-1.2 1.2h-4.933c-.8 0-1.334.534-1.334 1.334s.534 1.333 1.334 1.333h2v1.2c0 .8.533 1.333 1.333 1.333.8 0 1.334-.533 1.334-1.333v-1.2h.4a3.87 3.87 0 0 0 3.866-3.867 3.87 3.87 0 0 0-3.867-3.866Z" fill="#FD9222"/></symbol><symbol id="spoon" viewBox="0 0 32 32"><path fill="#fd9222" style="fill:var(--color2,#fd9222)" d="M15.451 14.106a5.154 5.154 0 0 1-1.177-3.282c0-4.324 5.181-8.642 10.362-8.642a5.183 5.183 0 0 1 5.181 5.182c0 5.182-4.317 10.364-8.646 10.364a5.15 5.15 0 0 1-3.281-1.177L5.132 29.312a1.73 1.73 0 0 1-2.445-2.445l12.764-12.761z"/></symbol><symbol id="icon-choco-logo21" viewBox="0 0 32 32"><path fill="#fcf1e0" style="fill:var(--color3,#fcf1e0)" d="M3.944 20.076 14.721 2.652l.64-.674 8.236 5.491.056 3.314 2.01 3.28-8.88 14.077-12.839-8.063z"/><path fill="#fd9222" style="fill:var(--color2,#fd9222)" d="M14.958.848a1.378 1.378 0 0 0-.854.613l-.003.006-11.735 19.25a1.371 1.371 0 0 0 .438 1.875l.006.003 14.188 8.863a1.369 1.369 0 0 0 1.892-.444l.003-.006 3.905-6.402-.001.002.004-.008 5.548-9.098a1.371 1.371 0 0 0-.438-1.875l-.006-.003c-1.452-.907-2.255-1.66-2.479-2.182s-.222-1.115.643-2.533a1.371 1.371 0 0 0-.438-1.875l-.006-.003L16 1.016a1.357 1.357 0 0 0-1.051-.168l.009-.002zm.765 3.232 4.765 2.976-2.485 4.074-4.765-2.979zm7.092 4.432.399.247c-.55 1.333-.797 2.634-.31 3.768.476 1.108 1.39 1.89 2.44 2.634l-.247.405-4.768-2.979zM11.81 10.497l4.765 2.976-2.482 4.074-4.765-2.976zm7.092 4.432 4.768 2.979-2.485 4.074-4.765-2.979zM7.899 16.914l4.765 2.976-2.482 4.077-4.768-2.979zm7.092 4.431 4.768 2.979-2.485 4.074-4.768-2.979z"/></symbol><symbol id="icon-mob-burger" viewBox="0 0 32 32"><path d="M3.498 6.936c-.218.065-.503.358-.566.582a2.345 2.345 0 0 0 .003.98l-.003-.016c.066.235.349.515.591.585.25.072 24.699.072 24.959 0 .235-.066.515-.349.585-.591a2.282 2.282 0 0 0-.002-.969l.003.015c-.07-.242-.35-.525-.585-.591-.239-.066-24.762-.064-24.984.003zm0 8c-.218.065-.503.358-.566.582a2.345 2.345 0 0 0 .003.98l-.003-.016c.066.235.349.515.591.585.25.072 24.699.072 24.959 0 .235-.066.515-.349.585-.591a2.282 2.282 0 0 0-.002-.969l.003.015c-.07-.242-.35-.525-.585-.591-.239-.066-24.762-.064-24.984.003zm0 8c-.218.065-.503.358-.566.582a2.345 2.345 0 0 0 .003.98l-.003-.016c.066.235.349.515.591.585.25.072 24.699.072 24.959 0 .235-.066.515-.349.585-.591a2.282 2.282 0 0 0-.002-.969l.003.015c-.07-.242-.35-.525-.585-.591-.239-.066-24.762-.064-24.984.003z"/></symbol><symbol id="icon-scroll-down16" viewBox="0 0 32 32"><path d="M16.946 17.867a1.334 1.334 0 0 1-1.894 0l-6.107-6.12a1.334 1.334 0 1 0-1.894 1.88l6.12 6.12a4.001 4.001 0 0 0 5.654 0l6.12-6.12a1.337 1.337 0 0 0-.434-2.172 1.328 1.328 0 0 0-1.46.292l-6.107 6.12z"/></symbol><symbol id="icon-scroll-down22" viewBox="0 0 32 32"><path d="M16.947 17.867a1.334 1.334 0 0 1-1.894 0l-6.107-6.12a1.334 1.334 0 1 0-1.894 1.88l6.12 6.12a4.001 4.001 0 0 0 5.654 0l6.12-6.12a1.337 1.337 0 0 0-.434-2.172 1.331 1.331 0 0 0-1.46.292l-6.107 6.12z"/></symbol><symbol id="icon-close-modal24" viewBox="0 0 32 32"><path d="M7.501 6.727a2.257 2.257 0 0 0-.772.776l-.006.01a1.15 1.15 0 0 0 .005.99l-.003-.007c.075.149 1.313 1.427 3.745 3.864L14.105 16l-3.635 3.64c-2.432 2.437-3.671 3.715-3.745 3.864-.235.469-.113.977.34 1.431s.961.575 1.431.34c.149-.075 1.427-1.313 3.864-3.745L16 17.895l3.64 3.635c2.437 2.432 3.715 3.671 3.864 3.745.469.235.977.113 1.431-.34s.575-.961.34-1.431c-.075-.149-1.313-1.427-3.745-3.864L17.895 16l3.635-3.64c2.432-2.437 3.671-3.715 3.745-3.864.235-.469.113-.977-.34-1.431s-.961-.575-1.431-.34c-.149.075-1.427 1.313-3.864 3.745L16 14.105l-3.64-3.635C9.923 8.038 8.645 6.799 8.496 6.725a1.173 1.173 0 0 0-1.002.005l.007-.003z"/></symbol><symbol id="icon-close-28" viewBox="0 0 32 32"><path d="M7.494 6.621a2.519 2.519 0 0 0-.472.359l.001-.001c-.527.505-.657 1.068-.369 1.567.09.154 1.537 1.657 3.715 3.857l3.568 3.604-3.6 3.61c-2.806 2.813-3.628 3.665-3.721 3.865-.243.516-.115 1.039.374 1.529.49.489 1.012.617 1.529.374.199-.095 1.053-.916 3.869-3.725l3.613-3.604 3.613 3.604c2.816 2.809 3.67 3.631 3.869 3.725.516.243 1.039.115 1.529-.374.489-.49.617-1.012.374-1.529-.093-.199-.915-1.052-3.721-3.865l-3.601-3.61 3.569-3.607c2.135-2.157 3.626-3.706 3.715-3.856.294-.506.148-1.088-.403-1.594-.489-.451-.979-.563-1.439-.329-.143.073-1.519 1.398-3.849 3.706-1.994 1.977-3.645 3.587-3.67 3.58a351.043 351.043 0 0 1-3.665-3.601l.007.007C10.031 8.038 8.633 6.691 8.492 6.62a1.168 1.168 0 0 0-1.005.004l.007-.003z"/></symbol><symbol id="icon-instagram" viewBox="0 0 32 32"><path d="M8.427 1.392c-1.801.201-3.392.979-4.724 2.311C2.348 5.059 1.591 6.626 1.39 8.491c-.076.709-.076 14.309 0 15.019a7.848 7.848 0 0 0 2.179 4.665l-.002-.002c1.336 1.393 3.033 2.236 4.903 2.436.761.081 14.3.081 15.061 0 2.94-.315 5.485-2.273 6.597-5.073a8.72 8.72 0 0 0 .48-1.981l.004-.044c.035-.331.055-3.056.055-7.509s-.02-7.179-.055-7.509a7.89 7.89 0 0 0-2.181-4.665l.002.002C27.097 2.437 25.4 1.594 23.53 1.394c-.655-.071-14.476-.071-15.104 0zm15.546 2.759c1.013.293 1.744.712 2.433 1.395.719.709 1.14 1.433 1.423 2.445l.144.516v14.987l-.144.516c-.279.996-.7 1.728-1.396 2.424s-1.428 1.117-2.424 1.396l-.516.144H8.506l-.453-.124c-1.028-.28-1.764-.701-2.483-1.42s-1.14-1.455-1.42-2.483l-.124-.453V8.507l.124-.452c.501-1.835 1.74-3.187 3.449-3.764.864-.292.599-.283 8.56-.273l7.387.011.427.123zm-.972 3.21c-.669.137-.987.547-.995 1.279-.009.884.472 1.365 1.353 1.352.444-.007.744-.109.965-.332.481-.481.481-1.505 0-1.987-.272-.273-.853-.409-1.324-.312zm-8.068 2a6.733 6.733 0 0 0-3.49 1.787l.002-.002c-1.024.991-1.64 2.123-1.96 3.6-.095.433-.093 1.92.003 2.4a6.79 6.79 0 0 0 1.963 3.604l.002.002c.928.888 1.964 1.436 3.275 1.736.548.124 2.103.124 2.651 0 2.792-.637 4.789-2.713 5.267-5.476.176-1.025.028-2.475-.355-3.467-.803-2.077-2.645-3.648-4.851-4.133-.556-.123-1.981-.152-2.507-.052zm1.854 2.666c1.675.319 2.939 1.635 3.215 3.349.128.793-.003 1.552-.411 2.384-.209.428-.324.583-.735.993-.415.415-.561.523-.991.729-.872.421-1.596.536-2.445.388-2.36-.409-3.836-2.708-3.203-4.992a4.116 4.116 0 0 1 2.485-2.688l.028-.009a3.896 3.896 0 0 1 1.315-.225c.262 0 .518.025.766.074l-.025-.004z"/></symbol><symbol id="icon-twitter" viewBox="0 0 32 32"><path d="M21.536 2.667a7.295 7.295 0 0 0-5.609 3.19 7.29 7.29 0 0 0-1.24 4.06c-1.68-.125-3.334-.486-4.846-1.247-1.71-.861-4.195-3.318-5.417-5.057a1.333 1.333 0 0 0-2.343.306l-.003.009s-1.267 3.478-.906 7.708c.312 3.651 2.152 7.912 6.732 10.87-2.048.96-4.237 1.586-6.518 1.495L1.329 24a1.333 1.333 0 0 0-.65 2.497l.007.003c6.367 3.537 13.523 3.567 19.109.594S29.334 18.092 29.334 10v-.006c-.001-.241-.046-.477-.07-.716 1.276-1.424 2.244-3.099 2.698-4.964a1.333 1.333 0 0 0-2.066-1.4l.004-.003c-.982.693-2.091 1.165-3.221 1.568-.857-.735-1.825-1.33-2.93-1.607a7.308 7.308 0 0 0-2.211-.206zm1.563 2.791a4.638 4.638 0 0 1 2.375 1.456 1.333 1.333 0 0 0 1.4.401l-.009.003c.328-.099.597-.329.917-.448-.27.363-.498.756-.823 1.076a1.328 1.328 0 0 0-.373 1.206l-.001-.008c.054.284.082.573.083.862-.002 7.238-3.382 12.209-8.128 14.734-3.453 1.838-7.663 2.309-11.87 1.25a16.829 16.829 0 0 0 4.747-2.219 1.335 1.335 0 0 0-.2-2.32l-.008-.003c-5.575-2.478-7.075-6.459-7.38-10.039-.137-1.604.043-2.995.237-4.148 1.357 1.497 2.899 2.948 4.576 3.792a15.549 15.549 0 0 0 7.393 1.654 1.334 1.334 0 0 0 1.299-1.333v-1.349a4.636 4.636 0 0 1 2.984-4.398 4.646 4.646 0 0 1 2.781-.167z"/></symbol><symbol id="icon-ukraine-flag" viewBox="0 0 46 32"><path fill="#005bbb" style="fill:var(--color1,#005bbb)" d="M2.525 0h40.942a2.528 2.528 0 0 1 2.525 2.525v26.942a2.534 2.534 0 0 1-2.525 2.525H2.525A2.522 2.522 0 0 1 0 29.475V2.525A2.534 2.534 0 0 1 2.525 0z"/><path fill="#ffd500" style="fill:var(--color2,#ffd500)" d="M0 16h46v13.475A2.534 2.534 0 0 1 43.475 32H2.525A2.534 2.534 0 0 1 0 29.475V16z"/></symbol><symbol id="icon-mastercard" viewBox="0 0 50 32"><path fill="#ed0006" style="fill:var(--color1,#ed0006)" d="M25.143 28.078c-2.656 2.194-6.102 3.518-9.867 3.518C6.875 31.596.065 25.003.065 16.87S6.875 2.144 15.276 2.144c3.765 0 7.21 1.324 9.867 3.518 2.656-2.194 6.102-3.518 9.866-3.518 8.401 0 15.211 6.593 15.211 14.726s-6.81 14.726-15.211 14.726c-3.765 0-7.21-1.324-9.867-3.518z"/><path fill="#f9a000" style="fill:var(--color2,#f9a000)" d="M25.143 28.078c3.271-2.701 5.344-6.72 5.344-11.208s-2.074-8.507-5.344-11.208c2.656-2.194 6.102-3.518 9.866-3.518 8.401 0 15.211 6.593 15.211 14.726s-6.81 14.726-15.211 14.726c-3.765 0-7.21-1.324-9.867-3.518z"/><path fill="#ff5e00" style="fill:var(--color3,#ff5e00)" d="M25.143 28.078c3.271-2.701 5.344-6.72 5.344-11.208s-2.074-8.507-5.344-11.208c-3.271 2.701-5.344 6.72-5.344 11.208s2.074 8.507 5.344 11.208z"/></symbol></defs></svg>