<svg xmlns="http://www.w3.org/2000/svg" style="disply: none" fill="none">
    <symbol id="icon-logo" viewBox="0 0 32 32">
      <path fill="#fcf1e0" style="fill: var(--color1, #fcf1e0)" d="M3.944 20.076l10.777-17.424 0.64-0.674 8.236 5.491 0.056 3.314 2.010 3.28-8.88 14.077-12.839-8.063z"></path>
      <path fill="none" stroke="#fd9222" style="stroke: var(--color2, #fd9222)" stroke-linejoin="round" stroke-linecap="round" stroke-miterlimit="4" stroke-width="2.6667" d="M21.635 23.88l-14.185-8.864M11.361 8.599l14.185 8.864M10.63 25.864l11.736-19.25M27.176 14.789c-3.040-1.899-4.234-3.384-2.278-6.592l-9.626-6.015-11.736 19.25 14.186 8.864 9.454-15.507z"></path>
    </symbol>
    <symbol id="icon-close-mobile" viewBox="0 0 32 32">
        <path d="M22.6667 9.33325L9.33334 22.6666M9.33334 9.33325L22.6667 22.6666" stroke-width="2" stroke-linecap="round" stroke-linejoin="round"/>
    </symbol>
    <symbol id="icon-instagram-desktop" viewBox="0 0 24 24" fill="none" >
        <path d="M17 2H7C4.23858 2 2 4.23858 2 7V17C2 19.7614 4.23858 22 7 22H17C19.7614 22 22 19.7614 22 17V7C22 4.23858 19.7614 2 17 2Z" stroke-width="2" stroke-linecap="round" stroke-linejoin="round"/>
        <path d="M16 11.3701C16.1234 12.2023 15.9812 13.0523 15.5937 13.7991C15.2062 14.5459 14.5931 15.1515 13.8416 15.5297C13.0901 15.908 12.2384 16.0397 11.4077 15.906C10.5771 15.7723 9.80971 15.3801 9.21479 14.7852C8.61987 14.1903 8.22768 13.4229 8.09402 12.5923C7.96035 11.7616 8.09202 10.91 8.47028 10.1584C8.84854 9.40691 9.45414 8.7938 10.2009 8.4063C10.9477 8.0188 11.7977 7.87665 12.63 8.00006C13.4789 8.12594 14.2648 8.52152 14.8716 9.12836C15.4785 9.73521 15.8741 10.5211 16 11.3701Z" stroke-width="2" stroke-linecap="round" stroke-linejoin="round"/>
        <path d="M16 11.3701C16.1234 12.2023 15.9812 13.0523 15.5937 13.7991C15.2062 14.5459 14.5931 15.1515 13.8416 15.5297C13.0901 15.908 12.2384 16.0397 11.4077 15.906C10.5771 15.7723 9.80971 15.3801 9.21479 14.7852C8.61987 14.1903 8.22768 13.4229 8.09402 12.5923C7.96035 11.7616 8.09202 10.91 8.47028 10.1584C8.84854 9.40691 9.45414 8.7938 10.2009 8.4063C10.9477 8.0188 11.7977 7.87665 12.63 8.00006C13.4789 8.12594 14.2648 8.52152 14.8716 9.12836C15.4785 9.73521 15.8741 10.5211 16 11.3701Z" stroke-width="2" stroke-linecap="round" stroke-linejoin="round"/>
        <path d="M17.5 6.5H17.51" stroke-width="2" sroke-linecap="round" stroke-linejoin="round"/>
        <path d="M17.5 6.5H17.51" stroke-width="2" stroke-linecap="round" stroke-linejoin="round"/>
    </symbol>
    <symbol id="icon-instagram-mobile" viewBox="0 0 24 24" fill="none" >
        <path d="M15.5835 1.83325H6.41683C3.88552 1.83325 1.8335 3.88528 1.8335 6.41658V15.5833C1.8335 18.1146 3.88552 20.1666 6.41683 20.1666H15.5835C18.1148 20.1666 20.1668 18.1146 20.1668 15.5833V6.41658C20.1668 3.88528 18.1148 1.83325 15.5835 1.83325Z" stroke-width="1.5" stroke-linecap="round" stroke-linejoin="round"/>
        <path d="M14.6667 10.4225C14.7799 11.1854 14.6495 11.9646 14.2943 12.6491C13.9391 13.3337 13.3771 13.8888 12.6882 14.2356C11.9993 14.5823 11.2186 14.703 10.4572 14.5805C9.69576 14.4579 8.99234 14.0984 8.44699 13.5531C7.90165 13.0078 7.54214 12.3043 7.41962 11.5429C7.29709 10.7815 7.41778 10.0008 7.76452 9.31188C8.11126 8.62298 8.66639 8.06096 9.35096 7.70575C10.0355 7.35055 10.8147 7.22024 11.5776 7.33337C12.3557 7.44876 13.0762 7.81137 13.6324 8.36765C14.1887 8.92392 14.5513 9.64435 14.6667 10.4225Z" stroke-width="1.5" stroke-linecap="round" stroke-linejoin="round"/>
        <path d="M14.6667 10.4225C14.7799 11.1854 14.6495 11.9646 14.2943 12.6491C13.9391 13.3337 13.3771 13.8888 12.6882 14.2356C11.9993 14.5823 11.2186 14.703 10.4572 14.5805C9.69576 14.4579 8.99234 14.0984 8.44699 13.5531C7.90165 13.0078 7.54214 12.3043 7.41962 11.5429C7.29709 10.7815 7.41778 10.0008 7.76452 9.31188C8.11126 8.62298 8.66639 8.06096 9.35096 7.70575C10.0355 7.35055 10.8147 7.22024 11.5776 7.33337C12.3557 7.44876 13.0762 7.81137 13.6324 8.36765C14.1887 8.92392 14.5513 9.64435 14.6667 10.4225Z" stroke-width="1.5" stroke-linecap="round" stroke-linejoin="round"/>
        <path d="M16.0415 5.95825H16.0515" stroke-width="1.5" stroke-linecap="round" stroke-linejoin="round"/>
        <path d="M16.0415 5.95825H16.0515" stroke-width="1.5" stroke-linecap="round" stroke-linejoin="round"/>
    </symbol>
    <symbol id="icon-twitter-desktop" viewBox="0 0 24 24" fill="none">
        <path d="M23 3.00005C22.0424 3.67552 20.9821 4.19216 19.86 4.53005C19.2577 3.83756 18.4573 3.34674 17.567 3.12397C16.6767 2.90121 15.7395 2.95724 14.8821 3.2845C14.0247 3.61176 13.2884 4.19445 12.773 4.95376C12.2575 5.71308 11.9877 6.61238 12 7.53005V8.53005C10.2426 8.57561 8.50127 8.18586 6.93101 7.39549C5.36074 6.60513 3.51032 4.72313 2.5 3.2845C2.5 3.2845 -1 13 8 17C5.94053 18.398 3.48716 19.099 1 19C10 24 21 19 21 7.50005C20.9991 7.2215 20.9723 6.94364 20.92 6.67005C21.9406 5.66354 22.6608 4.39276 23 3.00005Z" stroke-width="2" stroke-linecap="round" stroke-linejoin="round"/>
    </symbol>
    <symbol id="icon-twitter-mobile" viewBox="0 0 24 24">
        <path d="M19.1668 2.50008C18.3688 3.06298 17.4853 3.4935 16.5502 3.77508C16.0483 3.198 15.3813 2.78899 14.6394 2.60335C13.8974 2.41771 13.1164 2.46441 12.4019 2.73712C11.6874 3.00984 11.0739 3.49541 10.6443 4.12818C10.2148 4.76094 9.98991 5.51036 10.0002 6.27508V7.10841C8.53569 7.14639 7.08456 6.82159 5.776 6.16295C4.46745 5.50431 3.34209 4.19886 2.50016 3C2.50016 3 -0.833171 10.8334 6.66683 14.1667C4.9506 15.3317 2.90613 15.9159 0.833496 15.8334C8.3335 20.0001 17.5002 15.8334 17.5002 6.25008C17.4994 6.01796 17.4771 5.78641 17.4335 5.55841C18.284 4.71966 18.8842 3.66067 19.1668 2.50008Z" stroke-width="1.5" stroke-linecap="round" stroke-linejoin="round"/>
    </symbol>
    <symbol id="icon-buynow-close" viewBox="0 0 28 28">
        <path d="M21 7L7 21" stroke-width="2" stroke-linecap="round" stroke-linejoin="round"/>
        <path d="M7 7L21 21" stroke-width="2" stroke-linecap="round" stroke-linejoin="round"/>
    </symbol>

    <symbol id="icon-scroll" viewBox="0 0 22 22">
        <path d="M11.6512 12.2834C11.566 12.3693 11.4646 12.4375 11.3529 12.484C11.2412 12.5306 11.1214 12.5545 11.0004 12.5545C10.8794 12.5545 10.7596 12.5306 10.6479 12.484C10.5362 12.4375 10.4348 12.3693 10.3496 12.2834L6.15124 8.07588C6.06602 7.98996 5.96464 7.92177 5.85293 7.87523C5.74123 7.82869 5.62141 7.80473 5.5004 7.80473C5.37939 7.80473 5.25958 7.82869 5.14787 7.87523C5.03617 7.92177 4.93478 7.98996 4.84957 8.07588C4.67884 8.24763 4.58301 8.47996 4.58301 8.72213C4.58301 8.9643 4.67884 9.19663 4.84957 9.36838L9.05707 13.5759C9.5727 14.0909 10.2717 14.3801 11.0004 14.3801C11.7292 14.3801 12.4281 14.0909 12.9437 13.5759L17.1512 9.36838C17.3206 9.19764 17.4161 8.96719 17.4171 8.72671C17.4178 8.60607 17.3947 8.48648 17.349 8.3748C17.3034 8.26311 17.2362 8.16153 17.1512 8.07588C17.066 7.98996 16.9647 7.92177 16.8529 7.87523C16.7412 7.82869 16.6214 7.80473 16.5004 7.80473C16.3794 7.80473 16.2596 7.82869 16.1479 7.87523C16.0362 7.92177 15.9348 7.98996 15.8496 8.07588L11.6512 12.2834Z"/>
    </symbol>

    <symbol id="icon-flag" viewBox="0 0 32 25">
        <g clip-path="url(#clip0_1_1184)">
            <path d="M31.8318 1.05835H0.242676V24.5665H31.8318V1.05835Z" fill="#FFD700"/>
            <path fill-rule="evenodd" clip-rule="evenodd" d="M0.242676 1.05835H31.8318V12.8124H0.242676V1.05835Z" fill="#0057B7"/>
        </g>
        <defs>
            <clipPath id="clip0_1_1184">
            <rect width="32" height="24" fill="white" transform="translate(0 0.799988)"/>
            </clipPath>
        </defs>
    </symbol>
    <symbol id="icon-mastercard1" viewBox="0 0 31 19">
        <path fill-rule="evenodd" clip-rule="evenodd" d="M16 16.8343C14.4022 18.2053 12.3295 19.033 10.0647 19.033C5.01106 19.033 0.914307 14.9122 0.914307 9.82898C0.914307 4.74576 5.01106 0.625 10.0647 0.625C12.3295 0.625 14.4022 1.45267 16 2.82371C17.5979 1.45267 19.6705 0.625 21.9354 0.625C26.989 0.625 31.0857 4.74576 31.0857 9.82898C31.0857 14.9122 26.989 19.033 21.9354 19.033C19.6705 19.033 17.5979 18.2053 16 16.8343Z" fill="#ED0006"/>
        <path fill-rule="evenodd" clip-rule="evenodd" d="M16 16.8343C17.9674 15.1461 19.215 12.6341 19.215 9.82898C19.215 7.02389 17.9674 4.51189 16 2.82371C17.5978 1.45267 19.6705 0.625 21.9354 0.625C26.989 0.625 31.0857 4.74576 31.0857 9.82898C31.0857 14.9122 26.989 19.033 21.9354 19.033C19.6705 19.033 17.5978 18.2053 16 16.8343Z" fill="#F9A000"/>
         <path fill-rule="evenodd" clip-rule="evenodd" d="M16.0001 16.8343C17.9675 15.1462 19.2151 12.6342 19.2151 9.82909C19.2151 7.02402 17.9675 4.51203 16.0001 2.82385C14.0327 4.51203 12.7852 7.02402 12.7852 9.82909C12.7852 12.6342 14.0327 15.1462 16.0001 16.8343Z" fill="#FF5E00"/>
    </symbol>
    <symbol id="icon-hamburger" viewBox="0 0 32 32">
        <path d="M4 16H28M4 8H28M4 24H28" stroke="#111111" stroke-width="2.5" stroke-linecap="round" stroke-linejoin="round"/>
    </symbol>

</svg>

