<svg xmlns="http://www.w3.org/2000/svg">
<defs>
<symbol id="chocolate_bar" xmlns="http://www.w3.org/2000/svg" viewBox="0 0 32 32">
  <path d="M13.822 2.41301L21.349 9.94901L21.429 9.86901C21.5867 9.71469 21.7978 9.6272 22.0184 9.62477C22.239 9.62235 22.452 9.70519 22.613 9.85601L22.619 9.86201L23.486 10.729C23.791 11.034 23.801 11.499 23.569 11.823L23.565 11.83L23.422 12.022L29.582 18.182C30.132 18.732 30.132 19.612 29.582 20.162L20.152 29.592C19.602 30.142 18.722 30.142 18.172 29.592L13.725 25.145C13.6512 25.2381 13.5584 25.3145 13.4529 25.3692C13.3474 25.4239 13.2316 25.4556 13.1129 25.4623C12.9943 25.469 12.8756 25.4505 12.7646 25.4081C12.6536 25.3656 12.5529 25.3002 12.469 25.216L9.86901 22.616C9.71469 22.4584 9.6272 22.2472 9.62477 22.0266C9.62235 21.806 9.70519 21.593 9.85601 21.432L9.86201 21.425L9.93901 21.349L2.41201 13.822C1.86201 13.272 1.86201 12.392 2.41201 11.842L11.842 2.41201C12.392 1.86201 13.272 1.86201 13.822 2.41201V2.41301ZM20.404 10.893L18.648 9.13801C18.5928 9.0811 18.5268 9.03585 18.4538 9.00495C18.3808 8.97405 18.3023 8.95813 18.223 8.95813C18.1437 8.95813 18.0653 8.97405 17.9923 9.00495C17.9193 9.03585 17.8532 9.0811 17.798 9.13801L14.218 12.718C14.1613 12.7743 14.1163 12.8413 14.0856 12.9151C14.0548 12.9889 14.039 13.0681 14.039 13.148C14.039 13.2279 14.0548 13.3071 14.0856 13.3809C14.1163 13.4547 14.1613 13.5217 14.218 13.578L15.967 15.327L16.577 14.717L15.012 13.152L18.222 9.93201L19.791 11.506L20.404 10.893ZM15.328 15.965L13.574 14.211C13.5188 14.1541 13.4528 14.1088 13.3798 14.0779C13.3068 14.047 13.2283 14.0311 13.149 14.0311C13.0697 14.0311 12.9913 14.047 12.9183 14.0779C12.8453 14.1088 12.7792 14.1541 12.724 14.211L9.14401 17.791L9.13901 17.796L9.13401 17.801C8.89401 18.031 8.89401 18.411 9.13401 18.651L10.886 20.403L11.502 19.787L9.93201 18.223L13.152 15.013L14.716 16.576L15.328 15.965ZM8.82201 8.19301L12.402 11.773C12.642 12.013 13.022 12.013 13.252 11.763L16.832 8.18301C16.8889 8.12884 16.9342 8.06368 16.9651 7.99148C16.9961 7.91929 17.012 7.84156 17.012 7.76301H17.022C17.022 7.61301 16.962 7.45301 16.842 7.33301L13.262 3.75301C13.2058 3.69617 13.1388 3.65105 13.065 3.62025C12.9912 3.58946 12.912 3.5736 12.832 3.5736C12.752 3.5736 12.6729 3.58946 12.599 3.62025C12.5252 3.65105 12.4583 3.69617 12.402 3.75301L8.82201 7.34301C8.58201 7.57301 8.58201 7.95301 8.82201 8.19301ZM3.75201 13.263L7.33201 16.843C7.57201 17.083 7.95201 17.083 8.18201 16.843L11.762 13.263C11.8201 13.2077 11.8661 13.1409 11.8971 13.0669C11.9281 12.9929 11.9434 12.9132 11.942 12.833H11.952C11.952 12.673 11.892 12.523 11.772 12.403L8.19201 8.82301C8.13683 8.7661 8.07077 8.72085 7.99776 8.68995C7.92476 8.65905 7.84629 8.64313 7.76701 8.64313C7.68774 8.64313 7.60927 8.65905 7.53626 8.68995C7.46326 8.72085 7.3972 8.7661 7.34201 8.82301L3.75201 12.413C3.51201 12.643 3.51201 13.023 3.75201 13.263ZM10.685 22.017L13.047 24.38L22.683 11.34L22.028 10.685L10.685 22.017Z" fill="black"/>
  <path d="M13.822 2.41301L21.349 9.94901L21.429 9.86901C21.5867 9.71469 21.7978 9.6272 22.0184 9.62477C22.239 9.62235 22.452 9.70519 22.613 9.85601L22.619 9.86201L23.486 10.729C23.791 11.034 23.801 11.499 23.569 11.823L23.565 11.83L23.422 12.022L29.582 18.182C30.132 18.732 30.132 19.612 29.582 20.162L20.152 29.592C19.602 30.142 18.722 30.142 18.172 29.592L13.725 25.145C13.6512 25.2381 13.5584 25.3145 13.4529 25.3692C13.3474 25.4239 13.2316 25.4556 13.1129 25.4623C12.9943 25.469 12.8756 25.4505 12.7646 25.4081C12.6536 25.3656 12.5529 25.3002 12.469 25.216L9.86901 22.616C9.71469 22.4584 9.6272 22.2472 9.62477 22.0266C9.62235 21.806 9.70519 21.593 9.85601 21.432L9.86201 21.425L9.93901 21.349L2.41201 13.822C1.86201 13.272 1.86201 12.392 2.41201 11.842L11.842 2.41201C12.392 1.86201 13.272 1.86201 13.822 2.41201V2.41301ZM20.404 10.893L18.648 9.13801C18.5928 9.0811 18.5268 9.03585 18.4538 9.00495C18.3808 8.97405 18.3023 8.95813 18.223 8.95813C18.1437 8.95813 18.0653 8.97405 17.9923 9.00495C17.9193 9.03585 17.8532 9.0811 17.798 9.13801L14.218 12.718C14.1613 12.7743 14.1163 12.8413 14.0856 12.9151C14.0548 12.9889 14.039 13.0681 14.039 13.148C14.039 13.2279 14.0548 13.3071 14.0856 13.3809C14.1163 13.4547 14.1613 13.5217 14.218 13.578L15.967 15.327L16.577 14.717L15.012 13.152L18.222 9.93201L19.791 11.506L20.404 10.893ZM15.328 15.965L13.574 14.211C13.5188 14.1541 13.4528 14.1088 13.3798 14.0779C13.3068 14.047 13.2283 14.0311 13.149 14.0311C13.0697 14.0311 12.9913 14.047 12.9183 14.0779C12.8453 14.1088 12.7792 14.1541 12.724 14.211L9.14401 17.791L9.13901 17.796L9.13401 17.801C8.89401 18.031 8.89401 18.411 9.13401 18.651L10.886 20.403L11.502 19.787L9.93201 18.223L13.152 15.013L14.716 16.576L15.328 15.965ZM8.82201 8.19301L12.402 11.773C12.642 12.013 13.022 12.013 13.252 11.763L16.832 8.18301C16.8889 8.12884 16.9342 8.06368 16.9651 7.99148C16.9961 7.91929 17.012 7.84156 17.012 7.76301H17.022C17.022 7.61301 16.962 7.45301 16.842 7.33301L13.262 3.75301C13.2058 3.69617 13.1388 3.65105 13.065 3.62025C12.9912 3.58946 12.912 3.5736 12.832 3.5736C12.752 3.5736 12.6729 3.58946 12.599 3.62025C12.5252 3.65105 12.4583 3.69617 12.402 3.75301L8.82201 7.34301C8.58201 7.57301 8.58201 7.95301 8.82201 8.19301ZM3.75201 13.263L7.33201 16.843C7.57201 17.083 7.95201 17.083 8.18201 16.843L11.762 13.263C11.8201 13.2077 11.8661 13.1409 11.8971 13.0669C11.9281 12.9929 11.9434 12.9132 11.942 12.833H11.952C11.952 12.673 11.892 12.523 11.772 12.403L8.19201 8.82301C8.13683 8.7661 8.07077 8.72085 7.99776 8.68995C7.92476 8.65905 7.84629 8.64313 7.76701 8.64313C7.68774 8.64313 7.60927 8.65905 7.53626 8.68995C7.46326 8.72085 7.3972 8.7661 7.34201 8.82301L3.75201 12.413C3.51201 12.643 3.51201 13.023 3.75201 13.263ZM10.685 22.017L13.047 24.38L22.683 11.34L22.028 10.685L10.685 22.017Z" fill="#FD9222"/>
</symbol>
<symbol id="dollar_sign" xmlns="http://www.w3.org/2000/svg"  viewBox="0 0 28 28">
  <path d="M14 0.666626C6.66669 0.666626 0.666687 6.66663 0.666687 14C0.666687 21.3333 6.66669 27.3333 14 27.3333C21.3334 27.3333 27.3334 21.3333 27.3334 14C27.3334 6.66663 21.3334 0.666626 14 0.666626ZM14 24.6666C8.13335 24.6666 3.33335 19.8666 3.33335 14C3.33335 8.13329 8.13335 3.33329 14 3.33329C19.8667 3.33329 24.6667 8.13329 24.6667 14C24.6667 19.8666 19.8667 24.6666 14 24.6666Z" fill="#FD9222"/>
  <path d="M15.7334 12.6667H12.2667C11.6 12.6667 11.0667 12.1333 11.0667 11.4667C11.0667 10.8 11.6 10.2667 12.2667 10.2667H17.2C18 10.2667 18.5334 9.73332 18.5334 8.93332C18.5334 8.13332 18 7.59998 17.2 7.59998H15.3334V6.39998C15.3334 5.59998 14.8 5.06665 14 5.06665C13.2 5.06665 12.6667 5.59998 12.6667 6.39998V7.59998H12.2667C10.1334 7.59998 8.40002 9.33332 8.40002 11.4667C8.40002 13.6 10.1334 15.3333 12.2667 15.3333H15.6C16.2667 15.3333 16.8 15.8666 16.8 16.5333C16.8 17.2 16.2667 17.7333 15.6 17.7333H10.6667C9.86669 17.7333 9.33336 18.2667 9.33336 19.0667C9.33336 19.8667 9.86669 20.4 10.6667 20.4H12.6667V21.6C12.6667 22.4 13.2 22.9333 14 22.9333C14.8 22.9333 15.3334 22.4 15.3334 21.6V20.4H15.7334C17.8667 20.4 19.6 18.6667 19.6 16.5333C19.6 14.4 17.8667 12.6667 15.7334 12.6667Z" fill="#FD9222"/>
</symbol>

<symbol id="spoon" xmlns="http://www.w3.org/2000/svg" viewBox="0 0 32 32" >
  <path d="M15.4515 14.1059C14.6689 13.1559 14.275 11.9899 14.275 10.8239C14.275 6.50016 19.456 2.18176 24.6371 2.18176C27.4974 2.18176 29.8181 4.5029 29.8181 7.36383C29.8181 12.5459 25.5006 17.728 21.1722 17.728C20.0065 17.728 18.8408 17.3339 17.8909 16.5512L5.13254 29.3121C4.45792 29.9868 3.36234 29.9868 2.68773 29.3121C2.01311 28.6373 2.01311 27.5415 2.68773 26.8668L15.4515 14.1059Z" fill="#FD9222"/>
</symbol>
<symbol id="icon-close-modal24" viewBox="0 0 32 32">
<path d="M7.501 6.727c-0.322 0.196-0.585 0.461-0.772 0.776l-0.006 0.010c-0.069 0.144-0.109 0.312-0.109 0.49 0 0.179 0.041 0.348 0.114 0.5l-0.003-0.007c0.075 0.149 1.313 1.427 3.745 3.864l3.635 3.64-3.635 3.64c-2.432 2.437-3.671 3.715-3.745 3.864-0.235 0.469-0.113 0.977 0.34 1.431s0.961 0.575 1.431 0.34c0.149-0.075 1.427-1.313 3.864-3.745l3.64-3.635 3.64 3.635c2.437 2.432 3.715 3.671 3.864 3.745 0.469 0.235 0.977 0.113 1.431-0.34s0.575-0.961 0.34-1.431c-0.075-0.149-1.313-1.427-3.745-3.864l-3.635-3.64 3.635-3.64c2.432-2.437 3.671-3.715 3.745-3.864 0.235-0.469 0.113-0.977-0.34-1.431s-0.961-0.575-1.431-0.34c-0.149 0.075-1.427 1.313-3.864 3.745l-3.64 3.635-3.64-3.635c-2.437-2.432-3.715-3.671-3.864-3.745-0.145-0.069-0.316-0.109-0.496-0.109-0.181 0-0.353 0.041-0.506 0.114l0.007-0.003z"></path>
</symbol>
<symbol id="icon-ukraine-flag" viewBox="0 0 46 32">
<path fill="#005bbb" style="fill: var(--color1, #005bbb)" d="M2.525 0h40.942c1.392 0 2.525 1.133 2.525 2.525v26.942c0 1.392-1.142 2.525-2.525 2.525h-40.942c-1.383 0.008-2.525-1.125-2.525-2.517v-26.95c0-1.392 1.142-2.525 2.525-2.525v0z"></path>
<path fill="#ffd500" style="fill: var(--color2, #ffd500)" d="M0 16h46v13.475c0 1.392-1.142 2.525-2.525 2.525h-40.95c-1.383 0-2.525-1.133-2.525-2.525v-13.475z"></path>
</symbol>
<symbol id="icon-mastercard" viewBox="0 0 50 32">
<path fill="#ed0006" style="fill: var(--color1, #ed0006)" d="M25.143 28.078c-2.656 2.194-6.102 3.518-9.867 3.518-8.401 0-15.211-6.593-15.211-14.726s6.81-14.726 15.211-14.726c3.765 0 7.21 1.324 9.867 3.518 2.656-2.194 6.102-3.518 9.866-3.518 8.401 0 15.211 6.593 15.211 14.726s-6.81 14.726-15.211 14.726c-3.765 0-7.21-1.324-9.867-3.518z"></path>
<path fill="#f9a000" style="fill: var(--color2, #f9a000)" d="M25.143 28.078c3.271-2.701 5.344-6.72 5.344-11.208s-2.074-8.507-5.344-11.208c2.656-2.194 6.102-3.518 9.866-3.518 8.401 0 15.211 6.593 15.211 14.726s-6.81 14.726-15.211 14.726c-3.765 0-7.21-1.324-9.867-3.518z"></path>
<path fill="#ff5e00" style="fill: var(--color3, #ff5e00)" d="M25.143 28.078c3.271-2.701 5.344-6.72 5.344-11.208s-2.074-8.507-5.344-11.208c-3.271 2.701-5.344 6.72-5.344 11.208s2.074 8.507 5.344 11.208z"></path>
</symbol>
<symbol id="icon-logo" viewBox="0 0 32 32">
  <path fill="#fcf1e0" style="fill: var(--color1, #fcf1e0)" d="M3.944 20.076l10.777-17.424 0.64-0.674 8.236 5.491 0.056 3.314 2.010 3.28-8.88 14.077-12.839-8.063z"></path>
  <path fill="none" stroke="#fd9222" style="stroke: var(--color2, #fd9222)" stroke-linejoin="round" stroke-linecap="round" stroke-miterlimit="4" stroke-width="2.6667" d="M21.635 23.88l-14.185-8.864M11.361 8.599l14.185 8.864M10.63 25.864l11.736-19.25M27.176 14.789c-3.040-1.899-4.234-3.384-2.278-6.592l-9.626-6.015-11.736 19.25 14.186 8.864 9.454-15.507z"></path>
</symbol>
<symbol id="icon-close-mobile" viewBox="0 0 32 32">
  <path d="M22.6667 9.33325L9.33334 22.6666M9.33334 9.33325L22.6667 22.6666" stroke-width="2" stroke-linecap="round" stroke-linejoin="round"/>
</symbol>
<symbol id="icon-instagram-desktop" viewBox="0 0 24 24" fill="none" >
  <path d="M17 2H7C4.23858 2 2 4.23858 2 7V17C2 19.7614 4.23858 22 7 22H17C19.7614 22 22 19.7614 22 17V7C22 4.23858 19.7614 2 17 2Z" stroke-width="2" stroke-linecap="round" stroke-linejoin="round"/>
  <path d="M16 11.3701C16.1234 12.2023 15.9812 13.0523 15.5937 13.7991C15.2062 14.5459 14.5931 15.1515 13.8416 15.5297C13.0901 15.908 12.2384 16.0397 11.4077 15.906C10.5771 15.7723 9.80971 15.3801 9.21479 14.7852C8.61987 14.1903 8.22768 13.4229 8.09402 12.5923C7.96035 11.7616 8.09202 10.91 8.47028 10.1584C8.84854 9.40691 9.45414 8.7938 10.2009 8.4063C10.9477 8.0188 11.7977 7.87665 12.63 8.00006C13.4789 8.12594 14.2648 8.52152 14.8716 9.12836C15.4785 9.73521 15.8741 10.5211 16 11.3701Z" stroke-width="2" stroke-linecap="round" stroke-linejoin="round"/>
  <path d="M16 11.3701C16.1234 12.2023 15.9812 13.0523 15.5937 13.7991C15.2062 14.5459 14.5931 15.1515 13.8416 15.5297C13.0901 15.908 12.2384 16.0397 11.4077 15.906C10.5771 15.7723 9.80971 15.3801 9.21479 14.7852C8.61987 14.1903 8.22768 13.4229 8.09402 12.5923C7.96035 11.7616 8.09202 10.91 8.47028 10.1584C8.84854 9.40691 9.45414 8.7938 10.2009 8.4063C10.9477 8.0188 11.7977 7.87665 12.63 8.00006C13.4789 8.12594 14.2648 8.52152 14.8716 9.12836C15.4785 9.73521 15.8741 10.5211 16 11.3701Z" stroke-width="2" stroke-linecap="round" stroke-linejoin="round"/>
  <path d="M17.5 6.5H17.51" stroke-width="2" sroke-linecap="round" stroke-linejoin="round"/>
  <path d="M17.5 6.5H17.51" stroke-width="2" stroke-linecap="round" stroke-linejoin="round"/>
</symbol>
<symbol id="icon-instagram-mobile" viewBox="0 0 24 24" fill="none" >
  <path d="M15.5835 1.83325H6.41683C3.88552 1.83325 1.8335 3.88528 1.8335 6.41658V15.5833C1.8335 18.1146 3.88552 20.1666 6.41683 20.1666H15.5835C18.1148 20.1666 20.1668 18.1146 20.1668 15.5833V6.41658C20.1668 3.88528 18.1148 1.83325 15.5835 1.83325Z" stroke-width="1.5" stroke-linecap="round" stroke-linejoin="round"/>
  <path d="M14.6667 10.4225C14.7799 11.1854 14.6495 11.9646 14.2943 12.6491C13.9391 13.3337 13.3771 13.8888 12.6882 14.2356C11.9993 14.5823 11.2186 14.703 10.4572 14.5805C9.69576 14.4579 8.99234 14.0984 8.44699 13.5531C7.90165 13.0078 7.54214 12.3043 7.41962 11.5429C7.29709 10.7815 7.41778 10.0008 7.76452 9.31188C8.11126 8.62298 8.66639 8.06096 9.35096 7.70575C10.0355 7.35055 10.8147 7.22024 11.5776 7.33337C12.3557 7.44876 13.0762 7.81137 13.6324 8.36765C14.1887 8.92392 14.5513 9.64435 14.6667 10.4225Z" stroke-width="1.5" stroke-linecap="round" stroke-linejoin="round"/>
  <path d="M14.6667 10.4225C14.7799 11.1854 14.6495 11.9646 14.2943 12.6491C13.9391 13.3337 13.3771 13.8888 12.6882 14.2356C11.9993 14.5823 11.2186 14.703 10.4572 14.5805C9.69576 14.4579 8.99234 14.0984 8.44699 13.5531C7.90165 13.0078 7.54214 12.3043 7.41962 11.5429C7.29709 10.7815 7.41778 10.0008 7.76452 9.31188C8.11126 8.62298 8.66639 8.06096 9.35096 7.70575C10.0355 7.35055 10.8147 7.22024 11.5776 7.33337C12.3557 7.44876 13.0762 7.81137 13.6324 8.36765C14.1887 8.92392 14.5513 9.64435 14.6667 10.4225Z" stroke-width="1.5" stroke-linecap="round" stroke-linejoin="round"/>
  <path d="M16.0415 5.95825H16.0515" stroke-width="1.5" stroke-linecap="round" stroke-linejoin="round"/>
  <path d="M16.0415 5.95825H16.0515" stroke-width="1.5" stroke-linecap="round" stroke-linejoin="round"/>
</symbol>
<symbol id="icon-twitter-desktop" viewBox="0 0 24 24" fill="none">
  <path d="M23 3.00005C22.0424 3.67552 20.9821 4.19216 19.86 4.53005C19.2577 3.83756 18.4573 3.34674 17.567 3.12397C16.6767 2.90121 15.7395 2.95724 14.8821 3.2845C14.0247 3.61176 13.2884 4.19445 12.773 4.95376C12.2575 5.71308 11.9877 6.61238 12 7.53005V8.53005C10.2426 8.57561 8.50127 8.18586 6.93101 7.39549C5.36074 6.60513 3.51032 4.72313 2.5 3.2845C2.5 3.2845 -1 13 8 17C5.94053 18.398 3.48716 19.099 1 19C10 24 21 19 21 7.50005C20.9991 7.2215 20.9723 6.94364 20.92 6.67005C21.9406 5.66354 22.6608 4.39276 23 3.00005Z" stroke-width="2" stroke-linecap="round" stroke-linejoin="round"/>
</symbol>
<symbol id="icon-twitter-mobile" viewBox="0 0 24 24">
  <path d="M19.1668 2.50008C18.3688 3.06298 17.4853 3.4935 16.5502 3.77508C16.0483 3.198 15.3813 2.78899 14.6394 2.60335C13.8974 2.41771 13.1164 2.46441 12.4019 2.73712C11.6874 3.00984 11.0739 3.49541 10.6443 4.12818C10.2148 4.76094 9.98991 5.51036 10.0002 6.27508V7.10841C8.53569 7.14639 7.08456 6.82159 5.776 6.16295C4.46745 5.50431 3.34209 4.19886 2.50016 3C2.50016 3 -0.833171 10.8334 6.66683 14.1667C4.9506 15.3317 2.90613 15.9159 0.833496 15.8334C8.3335 20.0001 17.5002 15.8334 17.5002 6.25008C17.4994 6.01796 17.4771 5.78641 17.4335 5.55841C18.284 4.71966 18.8842 3.66067 19.1668 2.50008Z" stroke-width="1.5" stroke-linecap="round" stroke-linejoin="round"/>
</symbol>
<symbol id="icon-buynow-close" viewBox="0 0 28 28">
  <path d="M21 7L7 21" stroke-width="2" stroke-linecap="round" stroke-linejoin="round"/>
  <path d="M7 7L21 21" stroke-width="2" stroke-linecap="round" stroke-linejoin="round"/>
</symbol>
<symbol id="icon-scroll" viewBox="0 0 22 22">
  <path d="M11.6512 12.2834C11.566 12.3693 11.4646 12.4375 11.3529 12.484C11.2412 12.5306 11.1214 12.5545 11.0004 12.5545C10.8794 12.5545 10.7596 12.5306 10.6479 12.484C10.5362 12.4375 10.4348 12.3693 10.3496 12.2834L6.15124 8.07588C6.06602 7.98996 5.96464 7.92177 5.85293 7.87523C5.74123 7.82869 5.62141 7.80473 5.5004 7.80473C5.37939 7.80473 5.25958 7.82869 5.14787 7.87523C5.03617 7.92177 4.93478 7.98996 4.84957 8.07588C4.67884 8.24763 4.58301 8.47996 4.58301 8.72213C4.58301 8.9643 4.67884 9.19663 4.84957 9.36838L9.05707 13.5759C9.5727 14.0909 10.2717 14.3801 11.0004 14.3801C11.7292 14.3801 12.4281 14.0909 12.9437 13.5759L17.1512 9.36838C17.3206 9.19764 17.4161 8.96719 17.4171 8.72671C17.4178 8.60607 17.3947 8.48648 17.349 8.3748C17.3034 8.26311 17.2362 8.16153 17.1512 8.07588C17.066 7.98996 16.9647 7.92177 16.8529 7.87523C16.7412 7.82869 16.6214 7.80473 16.5004 7.80473C16.3794 7.80473 16.2596 7.82869 16.1479 7.87523C16.0362 7.92177 15.9348 7.98996 15.8496 8.07588L11.6512 12.2834Z"/>
</symbol>
<symbol id="icon-flag" viewBox="0 0 32 25">
  <g clip-path="url(#clip0_1_1184)">
    <path d="M31.8318 1.05835H0.242676V24.5665H31.8318V1.05835Z" fill="#FFD700"/>
    <path fill-rule="evenodd" clip-rule="evenodd" d="M0.242676 1.05835H31.8318V12.8124H0.242676V1.05835Z" fill="#0057B7"/>
  </g>
  <defs>
    <clipPath id="clip0_1_1184">
    <rect width="32" height="24" fill="white" transform="translate(0 0.799988)"/>
    </clipPath>
  </defs>
</symbol>
<symbol id="icon-mastercard1" viewBox="0 0 31 19">
  <path fill-rule="evenodd" clip-rule="evenodd" d="M16 16.8343C14.4022 18.2053 12.3295 19.033 10.0647 19.033C5.01106 19.033 0.914307 14.9122 0.914307 9.82898C0.914307 4.74576 5.01106 0.625 10.0647 0.625C12.3295 0.625 14.4022 1.45267 16 2.82371C17.5979 1.45267 19.6705 0.625 21.9354 0.625C26.989 0.625 31.0857 4.74576 31.0857 9.82898C31.0857 14.9122 26.989 19.033 21.9354 19.033C19.6705 19.033 17.5979 18.2053 16 16.8343Z" fill="#ED0006"/>
  <path fill-rule="evenodd" clip-rule="evenodd" d="M16 16.8343C17.9674 15.1461 19.215 12.6341 19.215 9.82898C19.215 7.02389 17.9674 4.51189 16 2.82371C17.5978 1.45267 19.6705 0.625 21.9354 0.625C26.989 0.625 31.0857 4.74576 31.0857 9.82898C31.0857 14.9122 26.989 19.033 21.9354 19.033C19.6705 19.033 17.5978 18.2053 16 16.8343Z" fill="#F9A000"/>
  <path fill-rule="evenodd" clip-rule="evenodd" d="M16.0001 16.8343C17.9675 15.1462 19.2151 12.6342 19.2151 9.82909C19.2151 7.02402 17.9675 4.51203 16.0001 2.82385C14.0327 4.51203 12.7852 7.02402 12.7852 9.82909C12.7852 12.6342 14.0327 15.1462 16.0001 16.8343Z" fill="#FF5E00"/>
</symbol>
<symbol id="icon-hamburger" viewBox="0 0 32 32">
  <path d="M4 16H28M4 8H28M4 24H28" stroke="#111111" stroke-width="2.5" stroke-linecap="round" stroke-linejoin="round"/>
</symbol>
</defs>
</svg>