<svg xmlns="http://www.w3.org/2000/svg">
<defs>
<symbol id="chocolate_bar" xmlns="http://www.w3.org/2000/svg" viewBox="0 0 32 32">
  <path d="M13.822 2.41301L21.349 9.94901L21.429 9.86901C21.5867 9.71469 21.7978 9.6272 22.0184 9.62477C22.239 9.62235 22.452 9.70519 22.613 9.85601L22.619 9.86201L23.486 10.729C23.791 11.034 23.801 11.499 23.569 11.823L23.565 11.83L23.422 12.022L29.582 18.182C30.132 18.732 30.132 19.612 29.582 20.162L20.152 29.592C19.602 30.142 18.722 30.142 18.172 29.592L13.725 25.145C13.6512 25.2381 13.5584 25.3145 13.4529 25.3692C13.3474 25.4239 13.2316 25.4556 13.1129 25.4623C12.9943 25.469 12.8756 25.4505 12.7646 25.4081C12.6536 25.3656 12.5529 25.3002 12.469 25.216L9.86901 22.616C9.71469 22.4584 9.6272 22.2472 9.62477 22.0266C9.62235 21.806 9.70519 21.593 9.85601 21.432L9.86201 21.425L9.93901 21.349L2.41201 13.822C1.86201 13.272 1.86201 12.392 2.41201 11.842L11.842 2.41201C12.392 1.86201 13.272 1.86201 13.822 2.41201V2.41301ZM20.404 10.893L18.648 9.13801C18.5928 9.0811 18.5268 9.03585 18.4538 9.00495C18.3808 8.97405 18.3023 8.95813 18.223 8.95813C18.1437 8.95813 18.0653 8.97405 17.9923 9.00495C17.9193 9.03585 17.8532 9.0811 17.798 9.13801L14.218 12.718C14.1613 12.7743 14.1163 12.8413 14.0856 12.9151C14.0548 12.9889 14.039 13.0681 14.039 13.148C14.039 13.2279 14.0548 13.3071 14.0856 13.3809C14.1163 13.4547 14.1613 13.5217 14.218 13.578L15.967 15.327L16.577 14.717L15.012 13.152L18.222 9.93201L19.791 11.506L20.404 10.893ZM15.328 15.965L13.574 14.211C13.5188 14.1541 13.4528 14.1088 13.3798 14.0779C13.3068 14.047 13.2283 14.0311 13.149 14.0311C13.0697 14.0311 12.9913 14.047 12.9183 14.0779C12.8453 14.1088 12.7792 14.1541 12.724 14.211L9.14401 17.791L9.13901 17.796L9.13401 17.801C8.89401 18.031 8.89401 18.411 9.13401 18.651L10.886 20.403L11.502 19.787L9.93201 18.223L13.152 15.013L14.716 16.576L15.328 15.965ZM8.82201 8.19301L12.402 11.773C12.642 12.013 13.022 12.013 13.252 11.763L16.832 8.18301C16.8889 8.12884 16.9342 8.06368 16.9651 7.99148C16.9961 7.91929 17.012 7.84156 17.012 7.76301H17.022C17.022 7.61301 16.962 7.45301 16.842 7.33301L13.262 3.75301C13.2058 3.69617 13.1388 3.65105 13.065 3.62025C12.9912 3.58946 12.912 3.5736 12.832 3.5736C12.752 3.5736 12.6729 3.58946 12.599 3.62025C12.5252 3.65105 12.4583 3.69617 12.402 3.75301L8.82201 7.34301C8.58201 7.57301 8.58201 7.95301 8.82201 8.19301ZM3.75201 13.263L7.33201 16.843C7.57201 17.083 7.95201 17.083 8.18201 16.843L11.762 13.263C11.8201 13.2077 11.8661 13.1409 11.8971 13.0669C11.9281 12.9929 11.9434 12.9132 11.942 12.833H11.952C11.952 12.673 11.892 12.523 11.772 12.403L8.19201 8.82301C8.13683 8.7661 8.07077 8.72085 7.99776 8.68995C7.92476 8.65905 7.84629 8.64313 7.76701 8.64313C7.68774 8.64313 7.60927 8.65905 7.53626 8.68995C7.46326 8.72085 7.3972 8.7661 7.34201 8.82301L3.75201 12.413C3.51201 12.643 3.51201 13.023 3.75201 13.263ZM10.685 22.017L13.047 24.38L22.683 11.34L22.028 10.685L10.685 22.017Z" fill="black"/>
  <path d="M13.822 2.41301L21.349 9.94901L21.429 9.86901C21.5867 9.71469 21.7978 9.6272 22.0184 9.62477C22.239 9.62235 22.452 9.70519 22.613 9.85601L22.619 9.86201L23.486 10.729C23.791 11.034 23.801 11.499 23.569 11.823L23.565 11.83L23.422 12.022L29.582 18.182C30.132 18.732 30.132 19.612 29.582 20.162L20.152 29.592C19.602 30.142 18.722 30.142 18.172 29.592L13.725 25.145C13.6512 25.2381 13.5584 25.3145 13.4529 25.3692C13.3474 25.4239 13.2316 25.4556 13.1129 25.4623C12.9943 25.469 12.8756 25.4505 12.7646 25.4081C12.6536 25.3656 12.5529 25.3002 12.469 25.216L9.86901 22.616C9.71469 22.4584 9.6272 22.2472 9.62477 22.0266C9.62235 21.806 9.70519 21.593 9.85601 21.432L9.86201 21.425L9.93901 21.349L2.41201 13.822C1.86201 13.272 1.86201 12.392 2.41201 11.842L11.842 2.41201C12.392 1.86201 13.272 1.86201 13.822 2.41201V2.41301ZM20.404 10.893L18.648 9.13801C18.5928 9.0811 18.5268 9.03585 18.4538 9.00495C18.3808 8.97405 18.3023 8.95813 18.223 8.95813C18.1437 8.95813 18.0653 8.97405 17.9923 9.00495C17.9193 9.03585 17.8532 9.0811 17.798 9.13801L14.218 12.718C14.1613 12.7743 14.1163 12.8413 14.0856 12.9151C14.0548 12.9889 14.039 13.0681 14.039 13.148C14.039 13.2279 14.0548 13.3071 14.0856 13.3809C14.1163 13.4547 14.1613 13.5217 14.218 13.578L15.967 15.327L16.577 14.717L15.012 13.152L18.222 9.93201L19.791 11.506L20.404 10.893ZM15.328 15.965L13.574 14.211C13.5188 14.1541 13.4528 14.1088 13.3798 14.0779C13.3068 14.047 13.2283 14.0311 13.149 14.0311C13.0697 14.0311 12.9913 14.047 12.9183 14.0779C12.8453 14.1088 12.7792 14.1541 12.724 14.211L9.14401 17.791L9.13901 17.796L9.13401 17.801C8.89401 18.031 8.89401 18.411 9.13401 18.651L10.886 20.403L11.502 19.787L9.93201 18.223L13.152 15.013L14.716 16.576L15.328 15.965ZM8.82201 8.19301L12.402 11.773C12.642 12.013 13.022 12.013 13.252 11.763L16.832 8.18301C16.8889 8.12884 16.9342 8.06368 16.9651 7.99148C16.9961 7.91929 17.012 7.84156 17.012 7.76301H17.022C17.022 7.61301 16.962 7.45301 16.842 7.33301L13.262 3.75301C13.2058 3.69617 13.1388 3.65105 13.065 3.62025C12.9912 3.58946 12.912 3.5736 12.832 3.5736C12.752 3.5736 12.6729 3.58946 12.599 3.62025C12.5252 3.65105 12.4583 3.69617 12.402 3.75301L8.82201 7.34301C8.58201 7.57301 8.58201 7.95301 8.82201 8.19301ZM3.75201 13.263L7.33201 16.843C7.57201 17.083 7.95201 17.083 8.18201 16.843L11.762 13.263C11.8201 13.2077 11.8661 13.1409 11.8971 13.0669C11.9281 12.9929 11.9434 12.9132 11.942 12.833H11.952C11.952 12.673 11.892 12.523 11.772 12.403L8.19201 8.82301C8.13683 8.7661 8.07077 8.72085 7.99776 8.68995C7.92476 8.65905 7.84629 8.64313 7.76701 8.64313C7.68774 8.64313 7.60927 8.65905 7.53626 8.68995C7.46326 8.72085 7.3972 8.7661 7.34201 8.82301L3.75201 12.413C3.51201 12.643 3.51201 13.023 3.75201 13.263ZM10.685 22.017L13.047 24.38L22.683 11.34L22.028 10.685L10.685 22.017Z" fill="#FD9222"/>
</symbol>
<symbol id="dollar_sign" xmlns="http://www.w3.org/2000/svg"  viewBox="0 0 28 28">
  <path d="M14 0.666626C6.66669 0.666626 0.666687 6.66663 0.666687 14C0.666687 21.3333 6.66669 27.3333 14 27.3333C21.3334 27.3333 27.3334 21.3333 27.3334 14C27.3334 6.66663 21.3334 0.666626 14 0.666626ZM14 24.6666C8.13335 24.6666 3.33335 19.8666 3.33335 14C3.33335 8.13329 8.13335 3.33329 14 3.33329C19.8667 3.33329 24.6667 8.13329 24.6667 14C24.6667 19.8666 19.8667 24.6666 14 24.6666Z" fill="#FD9222"/>
  <path d="M15.7334 12.6667H12.2667C11.6 12.6667 11.0667 12.1333 11.0667 11.4667C11.0667 10.8 11.6 10.2667 12.2667 10.2667H17.2C18 10.2667 18.5334 9.73332 18.5334 8.93332C18.5334 8.13332 18 7.59998 17.2 7.59998H15.3334V6.39998C15.3334 5.59998 14.8 5.06665 14 5.06665C13.2 5.06665 12.6667 5.59998 12.6667 6.39998V7.59998H12.2667C10.1334 7.59998 8.40002 9.33332 8.40002 11.4667C8.40002 13.6 10.1334 15.3333 12.2667 15.3333H15.6C16.2667 15.3333 16.8 15.8666 16.8 16.5333C16.8 17.2 16.2667 17.7333 15.6 17.7333H10.6667C9.86669 17.7333 9.33336 18.2667 9.33336 19.0667C9.33336 19.8667 9.86669 20.4 10.6667 20.4H12.6667V21.6C12.6667 22.4 13.2 22.9333 14 22.9333C14.8 22.9333 15.3334 22.4 15.3334 21.6V20.4H15.7334C17.8667 20.4 19.6 18.6667 19.6 16.5333C19.6 14.4 17.8667 12.6667 15.7334 12.6667Z" fill="#FD9222"/>
</symbol>

<symbol id="spoon" xmlns="http://www.w3.org/2000/svg" viewBox="0 0 32 32" >
  <path d="M15.4515 14.1059C14.6689 13.1559 14.275 11.9899 14.275 10.8239C14.275 6.50016 19.456 2.18176 24.6371 2.18176C27.4974 2.18176 29.8181 4.5029 29.8181 7.36383C29.8181 12.5459 25.5006 17.728 21.1722 17.728C20.0065 17.728 18.8408 17.3339 17.8909 16.5512L5.13254 29.3121C4.45792 29.9868 3.36234 29.9868 2.68773 29.3121C2.01311 28.6373 2.01311 27.5415 2.68773 26.8668L15.4515 14.1059Z" fill="#FD9222"/>
</symbol>
<symbol id="icon-close-modal24" viewBox="0 0 32 32">
<path d="M7.501 6.727c-0.322 0.196-0.585 0.461-0.772 0.776l-0.006 0.010c-0.069 0.144-0.109 0.312-0.109 0.49 0 0.179 0.041 0.348 0.114 0.5l-0.003-0.007c0.075 0.149 1.313 1.427 3.745 3.864l3.635 3.64-3.635 3.64c-2.432 2.437-3.671 3.715-3.745 3.864-0.235 0.469-0.113 0.977 0.34 1.431s0.961 0.575 1.431 0.34c0.149-0.075 1.427-1.313 3.864-3.745l3.64-3.635 3.64 3.635c2.437 2.432 3.715 3.671 3.864 3.745 0.469 0.235 0.977 0.113 1.431-0.34s0.575-0.961 0.34-1.431c-0.075-0.149-1.313-1.427-3.745-3.864l-3.635-3.64 3.635-3.64c2.432-2.437 3.671-3.715 3.745-3.864 0.235-0.469 0.113-0.977-0.34-1.431s-0.961-0.575-1.431-0.34c-0.149 0.075-1.427 1.313-3.864 3.745l-3.64 3.635-3.64-3.635c-2.437-2.432-3.715-3.671-3.864-3.745-0.145-0.069-0.316-0.109-0.496-0.109-0.181 0-0.353 0.041-0.506 0.114l0.007-0.003z"></path>
</symbol>
<symbol id="icon-ukraine-flag" viewBox="0 0 46 32">
<path fill="#005bbb" style="fill: var(--color1, #005bbb)" d="M2.525 0h40.942c1.392 0 2.525 1.133 2.525 2.525v26.942c0 1.392-1.142 2.525-2.525 2.525h-40.942c-1.383 0.008-2.525-1.125-2.525-2.517v-26.95c0-1.392 1.142-2.525 2.525-2.525v0z"></path>
<path fill="#ffd500" style="fill: var(--color2, #ffd500)" d="M0 16h46v13.475c0 1.392-1.142 2.525-2.525 2.525h-40.95c-1.383 0-2.525-1.133-2.525-2.525v-13.475z"></path>
</symbol>
<symbol id="icon-mastercard" viewBox="0 0 50 32">
<path fill="#ed0006" style="fill: var(--color1, #ed0006)" d="M25.143 28.078c-2.656 2.194-6.102 3.518-9.867 3.518-8.401 0-15.211-6.593-15.211-14.726s6.81-14.726 15.211-14.726c3.765 0 7.21 1.324 9.867 3.518 2.656-2.194 6.102-3.518 9.866-3.518 8.401 0 15.211 6.593 15.211 14.726s-6.81 14.726-15.211 14.726c-3.765 0-7.21-1.324-9.867-3.518z"></path>
<path fill="#f9a000" style="fill: var(--color2, #f9a000)" d="M25.143 28.078c3.271-2.701 5.344-6.72 5.344-11.208s-2.074-8.507-5.344-11.208c2.656-2.194 6.102-3.518 9.866-3.518 8.401 0 15.211 6.593 15.211 14.726s-6.81 14.726-15.211 14.726c-3.765 0-7.21-1.324-9.867-3.518z"></path>
<path fill="#ff5e00" style="fill: var(--color3, #ff5e00)" d="M25.143 28.078c3.271-2.701 5.344-6.72 5.344-11.208s-2.074-8.507-5.344-11.208c-3.271 2.701-5.344 6.72-5.344 11.208s2.074 8.507 5.344 11.208z"></path>
</symbol>
<symbol id="icon-instagram" viewBox="0 0 32 32">
<path d="M8.427 1.392c-1.801 0.201-3.392 0.979-4.724 2.311-1.355 1.356-2.112 2.923-2.313 4.788-0.076 0.709-0.076 14.309 0 15.019 0.194 1.827 0.988 3.439 2.179 4.665l-0.002-0.002c1.336 1.393 3.033 2.236 4.903 2.436 0.761 0.081 14.3 0.081 15.061 0 2.94-0.315 5.485-2.273 6.597-5.073 0.222-0.587 0.392-1.271 0.48-1.981l0.004-0.044c0.035-0.331 0.055-3.056 0.055-7.509s-0.020-7.179-0.055-7.509c-0.198-1.826-0.992-3.438-2.181-4.665l0.002 0.002c-1.336-1.393-3.033-2.236-4.903-2.436-0.655-0.071-14.476-0.071-15.104 0zM23.973 4.151c1.013 0.293 1.744 0.712 2.433 1.395 0.719 0.709 1.14 1.433 1.423 2.445l0.144 0.516v14.987l-0.144 0.516c-0.279 0.996-0.7 1.728-1.396 2.424s-1.428 1.117-2.424 1.396l-0.516 0.144h-14.987l-0.453-0.124c-1.028-0.28-1.764-0.701-2.483-1.42s-1.14-1.455-1.42-2.483l-0.124-0.453v-14.987l0.124-0.452c0.501-1.835 1.74-3.187 3.449-3.764 0.864-0.292 0.599-0.283 8.56-0.273l7.387 0.011 0.427 0.123zM23.001 7.361c-0.669 0.137-0.987 0.547-0.995 1.279-0.009 0.884 0.472 1.365 1.353 1.352 0.444-0.007 0.744-0.109 0.965-0.332 0.481-0.481 0.481-1.505 0-1.987-0.272-0.273-0.853-0.409-1.324-0.312zM14.933 9.361c-1.368 0.251-2.559 0.886-3.49 1.787l0.002-0.002c-1.024 0.991-1.64 2.123-1.96 3.6-0.095 0.433-0.093 1.92 0.003 2.4 0.283 1.429 0.982 2.663 1.963 3.604l0.002 0.002c0.928 0.888 1.964 1.436 3.275 1.736 0.548 0.124 2.103 0.124 2.651 0 2.792-0.637 4.789-2.713 5.267-5.476 0.176-1.025 0.028-2.475-0.355-3.467-0.803-2.077-2.645-3.648-4.851-4.133-0.556-0.123-1.981-0.152-2.507-0.052zM16.787 12.027c1.675 0.319 2.939 1.635 3.215 3.349 0.128 0.793-0.003 1.552-0.411 2.384-0.209 0.428-0.324 0.583-0.735 0.993-0.415 0.415-0.561 0.523-0.991 0.729-0.872 0.421-1.596 0.536-2.445 0.388-2.36-0.409-3.836-2.708-3.203-4.992 0.373-1.255 1.298-2.239 2.485-2.688l0.028-0.009c0.392-0.142 0.844-0.225 1.315-0.225 0.262 0 0.518 0.025 0.766 0.074l-0.025-0.004z"></path>
</symbol>
<symbol id="icon-twitter" viewBox="0 0 32 32">
<path d="M21.536 2.667c-0.738 0.044-1.47 0.199-2.169 0.466-1.398 0.534-2.6 1.486-3.44 2.724-0.814 1.199-1.231 2.613-1.24 4.060-1.68-0.125-3.334-0.486-4.846-1.247-1.71-0.861-4.195-3.318-5.417-5.057-0.244-0.345-0.642-0.567-1.091-0.567-0.575 0-1.064 0.364-1.252 0.873l-0.003 0.009c0 0-1.267 3.478-0.906 7.708 0.312 3.651 2.152 7.912 6.732 10.87-2.048 0.96-4.237 1.586-6.518 1.495-0.017-0.001-0.037-0.001-0.057-0.001-0.736 0-1.333 0.597-1.333 1.333 0 0.5 0.275 0.936 0.683 1.164l0.007 0.003c6.367 3.537 13.523 3.567 19.109 0.594s9.539-9.002 9.539-17.094c0-0.001 0-0.002 0-0.003s0-0.002 0-0.003v0c-0.001-0.241-0.046-0.477-0.070-0.716 1.276-1.424 2.244-3.099 2.698-4.964 0.024-0.094 0.037-0.201 0.037-0.312 0-0.736-0.597-1.333-1.333-1.333-0.287 0-0.553 0.091-0.77 0.245l0.004-0.003c-0.982 0.693-2.091 1.165-3.221 1.568-0.857-0.735-1.825-1.33-2.93-1.607-0.726-0.182-1.472-0.25-2.211-0.206zM23.099 5.458c0.922 0.231 1.751 0.738 2.375 1.456 0.246 0.282 0.606 0.46 1.007 0.46 0.137 0 0.268-0.021 0.393-0.059l-0.009 0.003c0.328-0.099 0.597-0.329 0.917-0.448-0.27 0.363-0.498 0.756-0.823 1.076-0.246 0.242-0.398 0.578-0.398 0.95 0 0.088 0.008 0.173 0.025 0.256l-0.001-0.008c0.054 0.284 0.082 0.573 0.083 0.862-0.002 7.238-3.382 12.209-8.128 14.734-3.453 1.838-7.663 2.309-11.87 1.25 1.677-0.49 3.284-1.225 4.747-2.219 0.355-0.243 0.585-0.647 0.585-1.104 0-0.541-0.322-1.007-0.785-1.216l-0.008-0.003c-5.575-2.478-7.075-6.459-7.38-10.039-0.137-1.604 0.043-2.995 0.237-4.148 1.357 1.497 2.899 2.948 4.576 3.792 2.29 1.153 4.83 1.72 7.393 1.654 0.722-0.019 1.299-0.609 1.299-1.333 0-0 0-0 0-0v0-1.333c0-0.002 0-0.005 0-0.008s0-0.005-0-0.008v0c-0.013-0.951 0.265-1.883 0.799-2.669s1.297-1.39 2.185-1.729 1.859-0.397 2.781-0.167z"></path>
</symbol>
</defs>
</svg>